<svg width="287" height="287" viewBox="0 0 287 287" fill="none" xmlns="http://www.w3.org/2000/svg">
<g clip-path="url(#clip0_1_5)">
<rect width="287" height="287" fill="url(#paint0_linear_1_5)"/>
<path d="M143.482 175.375C137.564 175.375 132.166 173.931 127.289 171.043C122.46 168.154 118.601 164.272 115.712 159.395C112.871 154.518 111.427 149.144 111.38 143.273C111.333 137.354 112.753 131.98 115.641 127.151C118.53 122.274 122.412 118.391 127.289 115.503C132.166 112.615 137.564 111.17 143.482 111.17C149.353 111.17 154.728 112.615 159.604 115.503C164.481 118.391 168.364 122.274 171.252 127.151C174.188 131.98 175.632 137.354 175.585 143.273C175.537 149.144 174.069 154.518 171.181 159.395C168.293 164.272 164.41 168.154 159.533 171.043C154.704 173.931 149.353 175.375 143.482 175.375ZM135.457 96.9659V53.7841H151.508V96.9659H135.457ZM181.835 116.284L170.471 104.92L201.153 74.2386L212.516 85.6023L181.835 116.284ZM189.789 151.298V135.247H232.971V151.298H189.789ZM201.153 212.307L170.471 181.625L181.835 170.261L212.516 200.943L201.153 212.307ZM135.457 232.761V189.58H151.508V232.761H135.457ZM85.8118 212.307L74.4482 200.943L105.13 170.261L116.494 181.625L85.8118 212.307ZM53.9936 151.298V135.247H97.1754V151.298H53.9936ZM105.13 116.284L74.4482 85.6023L85.8118 74.2386L116.494 104.92L105.13 116.284Z" fill="white"/>
</g>
<defs>
<linearGradient id="paint0_linear_1_5" x1="298.48" y1="24.395" x2="-6.24902e-06" y2="302.785" gradientUnits="userSpaceOnUse">
<stop stop-color="#FF8A00"/>
<stop offset="0.974779" stop-color="#FF0F00"/>
</linearGradient>
<clipPath id="clip0_1_5">
<rect width="287" height="287" fill="white"/>
</clipPath>
</defs>
</svg>
